<?xml version="1.0" encoding="UTF-8" standalone="no"?><!DOCTYPE svg PUBLIC "-//W3C//DTD SVG 1.1//EN" "http://www.w3.org/Graphics/SVG/1.1/DTD/svg11.dtd"><svg width="100%" height="100%" viewBox="0 0 5000 2459" version="1.1" xmlns="http://www.w3.org/2000/svg" xmlns:xlink="http://www.w3.org/1999/xlink" xml:space="preserve" xmlns:serif="http://www.serif.com/" style="fill-rule:evenodd;clip-rule:evenodd;stroke-linejoin:round;stroke-miterlimit:2;"><path d="M5000,-0l-4995.83,-0l4995.83,-0Zm-1561.25,2440.42c12.917,-5.834 32.083,-18.75 42.917,-28.75c13.75,-12.917 18.75,-15.417 17.083,-9.584c-1.25,4.584 -3.75,16.25 -5,26.25l-2.917,17.917l55.834,-1.25l55.416,-1.25l30,-168.75c16.25,-92.917 38.334,-216.667 48.75,-275.417c10.417,-58.75 19.167,-110.833 19.167,-115.416c0,-8.75 -1.25,-9.167 -57.917,-9.167c-51.666,0 -58.333,0.833 -60.416,7.5c-2.084,7.5 -40,225.833 -40,231.667c-0,1.666 -8.334,-5.417 -18.75,-15.834c-28.334,-28.333 -55.834,-37.083 -108.334,-35c-29.166,1.25 -48.333,4.584 -64.583,10.834c-49.583,19.583 -95,67.083 -117.5,123.75c-12.917,31.666 -13.333,36.25 -13.75,89.583c0,52.083 0.833,57.917 10.833,79.167c21.667,46.666 62.917,79.166 100.834,79.166c11.666,0 19.583,1.667 19.583,4.584c0,8.75 63.333,1.666 88.75,-10Zm530,6.666c11.667,-3.75 28.333,-10 37.5,-14.583c23.333,-11.667 60.417,-40 60.417,-46.25c-0,-2.917 -16.25,-17.917 -35.834,-32.917l-35.833,-28.333l-15,12.5c-52.917,42.5 -140.417,28.333 -155,-24.583c-2.083,-8.334 -4.167,-16.25 -4.167,-17.917c0,-2.083 60.834,-3.333 135.417,-3.333l135.417,-0l2.916,-11.25c2.084,-6.667 3.334,-34.167 3.334,-61.667c-0,-48.333 -0.417,-51.25 -13.75,-77.917c-23.334,-47.5 -61.25,-71.25 -125,-79.166c-92.917,-11.667 -182.917,35.833 -223.334,117.916c-64.166,130 -5,261.25 122.5,270.417c58.75,4.167 88.334,3.333 110.417,-2.917Zm496.667,-182.5c58.333,-98.333 107.916,-182.5 110,-186.25c3.75,-7.083 -0.417,-7.5 -62.084,-7.5l-65.833,0l-12.917,26.25c-7.5,14.167 -30.416,57.917 -51.25,96.667c-20.833,39.167 -43.75,82.5 -50.833,97.083c-6.667,14.167 -13.75,25.834 -15,25.834c-1.667,-0 -3.333,-6.25 -3.75,-13.75c-1.667,-22.5 -26.25,-221.25 -28.333,-226.667c-1.25,-4.167 -18.334,-5.417 -64.584,-5.417l-63.333,0l2.5,11.667c1.25,6.25 10,51.667 18.75,100.833c36.667,200 46.25,252.5 48.333,257.5c1.25,4.167 17.084,5 67.084,4.167l65.416,-1.25l105.834,-179.167Zm354.583,66.667l175.833,-74.167l0,-80l-186.666,-78.333c-102.5,-42.917 -187.917,-77.917 -189.584,-77.917c-1.666,0 -2.5,22.5 -2.083,50.417l1.25,50.417l109.167,46.666c60,25.834 110.416,47.917 112.083,49.584c1.667,1.25 -2.5,4.583 -9.167,7.083c-6.666,2.5 -57.5,23.75 -112.916,46.667l-101.25,42.083l-0,102.917l13.75,-5.417c7.083,-3.333 92.5,-39.167 189.583,-80Zm-1678.33,33.333l-0,-47.5l-11.25,-6.25c-6.667,-2.916 -58.334,-25 -115.417,-48.333l-103.75,-42.917l14.167,-7.083c7.916,-4.167 57.5,-25.417 110,-47.917c52.916,-22.083 98.333,-42.5 101.25,-44.583c7.083,-6.25 7.083,-99.167 -0.417,-99.167c-2.5,0 -88.333,35 -190.417,78.334l-185.416,78.333l-2.5,79.167l188.75,79.583c103.75,43.75 190,78.75 192.083,77.5c1.667,-0.833 2.917,-23.333 2.917,-49.167Zm235.416,-14.583c-52.083,-21.667 -55.833,-113.75 -6.666,-162.5c42.083,-42.083 109.583,-38.75 136.25,6.667c10,17.083 10.833,22.083 9.166,50.833c-3.75,67.5 -43.75,109.583 -103.333,108.75c-15,-0 -30.833,-1.667 -35.417,-3.75Zm456.25,-137.5c0,-17.083 30.834,-50 56.25,-60.833c21.667,-9.167 54.584,-8.75 74.167,0.416c16.667,7.917 33.75,36.667 31.25,52.917c-1.25,9.583 -1.667,9.583 -81.25,10.833c-55,0.834 -80.417,-0.416 -80.417,-3.333Zm-1310.83,-368.75c98.75,-128.333 131.667,-173.75 131.667,-182.083c-0,-6.667 -2.917,-27.917 -6.25,-47.917c-3.334,-20.417 -22.084,-135.833 -41.667,-257.5c-19.583,-121.25 -43.75,-272.5 -54.167,-335.417c-67.5,-416.25 -155.416,-965.416 -158.75,-989.583c-3.333,-28.333 -8.333,-31.667 -11.666,-7.5c-1.25,11.25 -8.334,49.167 -15,84.583c-7.084,35.417 -27.917,142.084 -46.25,237.084c-18.334,95 -47.5,245 -64.584,333.333c-17.083,88.333 -33.75,175 -37.083,192.083c-2.917,17.084 -20.833,108.334 -39.167,202.084c-18.333,94.166 -50.416,259.166 -71.25,366.666c-21.25,107.917 -38.75,204.584 -39.166,215l-0.417,19.167l157.917,171.667c87.083,94.166 159.583,170.833 161.25,170.416c1.666,-0.833 62.5,-77.916 134.583,-172.083Zm2377.5,-218.75l0,-233.333l0,233.333Z" style="fill:#00b9ec;"/><path d="M5000,-0l-4995.83,-0l4995.83,-0Zm-4995.83,1477.92c-0,-2.084 39.583,-43.75 87.916,-92.917l88.334,-89.167l29.583,28.334c117.5,110.416 309.167,124.166 362.5,26.25c15.833,-29.584 17.5,-76.667 3.75,-102.917c-21.667,-40.833 -64.583,-64.583 -190,-106.25c-90.417,-30.417 -154.583,-56.667 -184.583,-75.417c-73.334,-46.666 -122.084,-114.583 -137.5,-190.416c-10.417,-52.084 -6.667,-136.667 7.916,-181.667c36.667,-112.083 133.334,-195.417 267.5,-230.417c18.334,-4.583 47.5,-10.833 64.584,-13.75c44.583,-7.916 143.333,-6.666 191.666,2.084c46.667,8.333 125.834,33.75 162.917,52.916c44.167,22.084 112.083,70 112.083,79.167c0,2.5 -37.916,43.75 -84.166,92.5c-46.25,48.75 -84.584,89.167 -85.417,90c-0.833,1.25 -10.417,-6.667 -21.25,-17.083c-64.583,-62.917 -157.5,-90.417 -243.333,-72.5c-65.417,14.166 -100.834,51.25 -100.834,106.666c0,57.5 27.917,83.75 124.584,117.917c22.916,7.917 74.583,26.25 114.583,40.417c119.167,42.083 179.167,78.333 227.5,136.666c39.583,48.334 58.333,96.25 62.917,164.167c6.25,92.917 -22.5,186.667 -78.75,255.833c-56.667,70 -148.334,118.75 -255.834,136.667c-159.583,26.25 -337.916,-11.25 -460,-96.25c-28.75,-20.417 -66.666,-54.583 -66.666,-60.833Zm3221.67,-115.834l1.25,-262.916l425,525.833l177.917,-0c98.333,-0 178.333,-1.25 178.333,-2.5c0,-1.25 -116.25,-139.583 -257.916,-307.083c-151.25,-178.334 -257.084,-306.667 -255.417,-309.584c1.667,-2.5 111.25,-120.416 243.75,-261.25c132.083,-141.25 240.417,-257.916 240.417,-259.166c-0,-1.25 -77.5,-1.667 -171.667,-1.25l-172.083,1.25l-201.25,229.166c-110.834,126.25 -203.334,230 -205.417,230.417c-2.083,0.833 -3.75,-92.083 -3.75,-230l0,-231.667l-270.833,0l-0,1141.67l270.833,0l0.833,-262.917Zm1674.17,262.917l0,-233.333l-265.417,-0.834l-265.833,-1.25l0,-233.333l475,-4.167l0,-216.666l-236.25,-1.25l-236.667,-0.834l-2.083,-9.583c-1.25,-5 -1.667,-53.333 -1.25,-107.083l1.25,-97.917l251.25,-1.25l250.833,-0.833l0,-233.334l-384.166,0.834l-384.584,1.25l-1.25,564.583c-0.416,310.417 0,567.083 1.25,570c1.25,3.75 85.417,5 400,5l397.917,0Zm-3575,-8.333l0,-433.334l91.667,0c152.083,0 237.083,-14.583 318.75,-55.416c118.75,-58.75 181.25,-163.75 181.25,-305c-0,-105 -33.334,-188.334 -99.167,-247.917c-32.5,-29.583 -102.083,-65.833 -150.833,-79.167c-77.5,-20.833 -99.167,-22.083 -365.417,-23.75l-251.25,-2.083l0,1146.67l275,-0Zm0,-654.167l0,-266.667l85,0c122.917,0 169.583,11.25 202.5,48.334c20.833,24.166 26.667,40.833 26.667,80.833c0.416,30.833 -1.25,38.75 -11.25,59.167c-18.334,37.5 -52.917,60.416 -108.334,71.666c-22.5,4.584 -55,6.667 -113.333,6.667l-81.25,0Z" style="fill:#fff;"/></svg>